<svg width="119" height="109" viewBox="0 0 119 109" fill="none" xmlns="http://www.w3.org/2000/svg">
<path d="M73.2046 1.43336C72.023 1.67289 70.9325 2.03067 70.7512 2.26798C70.5698 2.50529 70.6619 3.03813 70.9355 3.39289L71.4827 4.1024L70.6668 5.22952L69.8963 6.35655L70.8986 7.24273L71.9009 8.12892L71.0397 9.3746L70.1785 10.5611L70.3648 12.5744L70.551 14.5284L69.6871 14.5304L68.7778 14.5324L68.7796 15.3616C68.7805 15.7761 69.1909 16.3083 69.6915 16.4848C70.192 16.6614 70.7389 17.2525 70.8765 17.7852L71.197 18.7914L70.4708 19.3853C69.4267 20.0983 69.5196 20.9865 70.703 21.5761L71.7044 22.0477L71.8014 24.772L71.9439 27.5553L70.4435 27.5587L68.8976 27.5621L68.6216 26.1412C68.4834 25.3124 68.481 24.2463 68.6162 23.7129L68.9323 22.7054L68.3401 22.2329L67.7025 21.7605L68.2917 20.8708L68.8353 19.9811L68.3781 18.8568C67.5552 16.8449 67.2793 15.4241 67.3659 13.4694C67.4545 12.4031 67.2242 11.1006 66.9504 10.6274L66.4029 9.79947L67.1304 9.79786L67.8579 9.79624L67.8542 8.13789C67.8483 5.47268 68.3452 3.9909 69.2539 3.69275C70.3442 3.27574 70.387 2.0911 69.2958 2.09352C67.8408 2.09675 54.0719 5.6809 51.8006 6.63357L49.6657 7.58594L48.1158 5.81256L46.5661 4.09841L44.5191 3.68835L42.4267 3.2784L40.7002 3.8745C39.7462 4.23198 37.5675 5.95439 35.7983 7.79436C31.4434 12.3053 30.0818 13.4336 28.9451 13.4361C27.9903 13.4382 26.5842 14.9813 26.9946 15.5134C27.1313 15.6316 28.7217 15.2134 30.5846 14.617C32.4474 13.9614 35.1288 13.4224 36.5383 13.4193L39.0845 13.4137L40.1782 14.5365C40.8161 15.1274 41.7749 16.9021 42.3694 18.4407L43.4213 21.222L42.6051 22.2307C42.1063 22.8241 40.9258 23.5966 39.8808 23.9543L38.0182 24.6692L36.4706 23.9027C33.1022 22.1925 31.9638 21.4251 31.9628 21.0105C31.9623 20.7736 31.1888 20.5384 30.1885 20.5406C29.2337 20.5428 27.5055 20.3689 26.323 20.1938L24.2305 19.7839L24.2291 19.1324C24.2283 18.777 24.6361 18.1246 25.1353 17.7089C25.6345 17.2932 26.0424 16.7001 26.0418 16.4039C26.0389 15.1009 24.904 15.9326 22.7733 18.7803C21.5492 20.3821 20.3701 21.7469 20.1427 21.7474C19.9609 21.7479 19.1448 22.8158 18.3746 24.0612L16.9249 26.4335L16.431 29.2775L15.8917 32.1216L13.8508 34.436C11.3106 37.1661 5.78254 45.7663 5.37714 47.4848C5.24231 48.1958 4.74452 49.263 4.29129 49.9155C3.11293 51.6357 1.2206 59.4579 0.641332 64.7896L0.151293 69.3512L0.705574 73.2589L1.21439 77.1668L2.86016 81.1906C5.42016 87.4038 9.43224 92.3108 15.0784 95.9703C16.8542 97.0917 19.7674 98.5659 21.5877 99.2726C25.7744 100.922 35.9636 102.854 40.1012 102.844C43.3748 102.778 54.9652 100.975 59.4185 99.8403C60.7818 99.4819 63.0533 98.6477 64.4161 98.0524C67.6412 96.6238 71.9117 95.0744 72.5938 95.0729C73.2303 95.0715 74.2833 98.3266 74.9286 102.293C75.5285 106.26 76.1237 108.095 76.7602 108.094L77.2604 108.093L76.9397 107.027C76.8022 106.494 76.3877 104.126 76.019 101.876C75.6956 99.5673 74.9606 96.1929 74.4108 94.2989C73.1737 90.0373 69.4748 82.8198 67.2866 80.2778L65.6457 78.4454L62.8268 78.5109C61.3265 78.5735 59.8261 78.5768 59.5078 78.5775C59.1894 78.519 58.7781 77.5723 58.5028 76.4475L58.0891 74.4347L58.4481 72.3018C58.6728 71.1167 59.2154 69.7533 59.6692 69.3377C60.3951 68.6254 63.3488 67.8489 65.9402 67.7247C67.486 67.662 69.0799 68.7838 71.3141 71.6218C73.457 74.2822 74.3678 74.9317 74.3652 73.7472C74.3638 73.0957 70.2145 67.8336 69.7143 67.8348C69.487 67.8353 68.8946 67.2443 68.393 66.5939L67.4354 65.3523L63.8442 65.7156L60.2532 66.1381L60.2487 64.1244L60.2443 62.1107L61.2874 60.9239C61.8316 60.2712 63.0114 59.2025 63.8741 58.6675L65.4631 57.5979L68.9189 57.7087C74.0571 57.8157 76.8795 59.3494 80.8004 64.1381C82.4873 66.2073 83.6697 66.3231 82.7106 64.3708C81.8429 62.6551 76.0108 57.1599 74.3271 56.5714C73.4625 56.2179 71.0517 55.8087 68.9597 55.5764L65.2305 55.2293L65.9546 53.6878C67.0407 51.3755 69.3987 48.5274 70.5344 48.0511L71.4883 47.6344L75.7649 48.8094C80.1325 49.9843 83.7732 51.4569 86.6873 53.3457C88.6907 54.585 89.5533 53.9909 88.0493 52.3951C86.8188 51.0948 80.1728 47.6743 78.9452 47.6771C78.445 47.6782 77.8077 47.3242 77.534 46.9102L77.032 46.0822L78.8478 44.7751L80.6636 43.4681L83.1657 44.0548C86.896 44.935 95.043 48.589 97.73 50.5968L100.053 52.3092L101.013 54.5577C102.109 57.0428 105.184 69.8883 105.419 73.0861C105.557 74.2111 105.878 75.2172 106.197 75.335L106.743 75.5707L106.462 72.0177L106.181 68.4646L108.492 64.9651C113.568 57.432 117.005 49.1918 118.171 41.7266L118.843 37.2831L118.387 36.6918L117.886 36.0414L117.478 36.8715L117.116 37.7015L114.206 37.708L111.342 37.7143L110.571 38.6044L109.755 39.4946L109.071 38.7262L108.387 38.017L107.752 38.6699L107.072 39.3821L106.07 38.7329L105.113 38.0243L104.115 38.6187C103.615 38.9752 101.388 39.3947 99.2061 39.5772L95.2511 39.9414L94.113 39.2924L92.9292 38.5843L89.8843 39.2426C88.1573 39.6017 86.157 39.7246 85.3382 39.5488L83.8826 39.2559L86.3341 37.5921L88.8312 35.9282L89.7867 36.2222L90.7423 36.5754L91.1497 35.7453L91.5571 34.9153L92.2416 36.0391L92.8806 37.163L94.7874 35.8557L96.6942 34.5485L97.0595 35.2584L97.3795 36.0277L98.0598 35.2562L98.7402 34.544L98.9235 35.1951L99.0614 35.8463L101.059 34.5388L103.057 33.2906L103.377 34.0006L103.697 34.7107L105.104 33.7599C105.876 33.2252 106.647 32.5127 106.783 32.2163L107.1 31.5641L107.738 32.2734L108.376 32.9235L109.056 32.2112L109.691 31.4991L111.102 31.9106C111.83 32.1459 113.83 32.0822 115.467 31.9009L118.467 31.4204L118.144 29.289C117.728 26.3878 116.172 21.8307 115.26 20.7666C114.804 20.2938 113.439 19.7046 112.211 19.4704L109.937 19.1201L108.894 20.6031L107.897 22.1452L106.897 22.1474C106.351 22.1486 105.578 21.7357 105.122 21.2037L104.347 20.2578L102.576 21.387C101.622 21.9814 99.9865 22.4589 98.9863 22.4611L97.0766 22.4653L95.891 20.928C95.2525 20.041 94.0685 19.2145 93.3405 18.9792L91.9756 18.6269L91.9705 16.317L91.9653 13.9479L90.2826 13.774L88.5544 13.6001L88.7343 12.7113C88.8242 12.2373 88.9587 11.4078 89.094 10.8745L89.2739 9.98568L88.1356 9.27748C87.4982 8.92353 86.9511 8.21402 86.95 7.7402C86.949 7.26638 87.6282 6.02111 88.4444 5.01244L89.8954 3.23241L89.2121 2.64165C87.2534 1.04686 78.8404 0.414007 73.2046 1.43336ZM45.7512 5.69934C47.663 6.64274 52.7729 14.5086 52.2298 15.6352C51.8677 16.4059 47.9145 17.54 45.732 17.5448L44.0952 17.5484L42.4532 15.2422C41.5411 14.0005 40.356 12.7001 39.8095 12.2867C39.2631 11.9326 37.8529 11.6396 36.6708 11.6422L34.5338 11.6469L35.6216 10.1046C37.344 7.67248 39.2048 6.12844 40.977 5.6507C43.4309 5.05299 44.4767 5.05067 45.7512 5.69934ZM49.5567 19.9647L48.7851 20.5586L49.063 22.8679L49.3865 25.2363L48.7974 26.126L48.2538 27.0156L48.8454 27.2512C49.2095 27.4281 50.2104 27.6627 51.0744 27.7201L52.6662 27.8942L52.8056 29.2561C52.8982 30.0259 53.2637 30.795 53.6278 30.9719C54.6748 31.5026 54.3582 32.2733 52.6325 33.2247L50.9976 34.1168L50.0412 33.4082C49.4948 33.054 48.492 31.9309 47.8076 30.8663C47.1233 29.8018 45.9385 28.6198 45.1646 28.207L43.7988 27.44L43.523 26.0784L43.2472 24.7168L43.9726 23.7676C44.3806 23.2336 44.6965 22.1668 44.6949 21.4561C44.6934 20.7454 44.8279 19.9159 45.0094 19.7378C45.1453 19.5006 46.418 19.3201 47.8275 19.317L50.3738 19.3706L49.5567 19.9647ZM31.376 22.9071L32.7414 23.5556L33.4735 25.6269C33.9307 26.7512 34.2523 28.2312 34.2537 28.8827C34.2552 29.5342 33.7122 30.7199 33.0773 31.4913L31.853 32.9747L30.7163 32.9772L29.625 32.9796L28.0752 31.2062C27.2547 30.2604 25.7976 29.316 24.9332 29.081L23.2955 28.7293L20.8877 29.623C19.5247 30.0999 18.2066 30.3397 17.9333 30.1034L17.3866 29.6308L17.8831 27.9713C18.1538 27.0231 19.1051 25.4218 19.9665 24.2946L21.5536 22.3366L25.7821 22.3272C28.101 22.3221 30.6023 22.6127 31.376 22.9071ZM74.9517 30.6285C76.9536 31.2163 79.3217 32.9287 80.9631 34.998C81.419 35.53 82.4736 39.4959 82.4762 40.6804C82.4769 40.9766 81.8862 41.1556 81.1587 41.1572C80.4767 41.1587 79.3411 41.6942 78.706 42.3471C78.0709 43 77.3901 43.5346 77.2082 43.535C77.0263 43.5354 76.4818 44.0104 76.0283 44.5445L75.1666 45.5533L72.1666 45.9745L69.2121 46.3956L67.987 47.5237C67.3519 48.1766 66.3547 49.6002 65.8116 50.7268C65.223 51.8534 64.5892 53.0986 64.3172 53.4545C64.0453 53.8697 63.6383 54.8775 63.4128 55.7072C63.1873 56.5368 62.5982 57.4265 62.1894 57.6051C61.7353 57.8431 60.8732 58.6741 60.1929 59.4456L58.9683 60.8105L58.7457 62.9432C58.5663 64.0689 58.1602 65.4913 57.7977 66.0251L57.1177 66.9743L51.888 66.5713L46.7038 66.2274L44.7006 65.0473C42.1057 63.5724 40.0994 61.0301 39.4114 58.3071L38.8154 56.117L39.2651 53.8654C39.8051 51.3174 41.6604 47.2859 43.7451 44.2015C44.561 43.0743 45.195 41.9476 45.1944 41.6515C45.1939 41.4146 45.4208 41.2364 45.6936 41.2358C45.9664 41.2352 46.965 40.463 47.8724 39.5726C51.0479 36.3081 55.9969 33.0988 60.1766 31.6089C63.4477 30.4171 68.6744 29.4579 70.6302 29.7497C71.7672 29.8656 73.7232 30.2758 74.9517 30.6285ZM26.4432 33.4012L26.5835 35.1777L25.2229 36.7207L23.8621 38.2044L21.0895 38.6251L18.2714 39.0459L16.4959 38.043C15.5398 37.4529 14.7197 36.6847 14.7643 36.3293C14.7635 35.9739 15.5795 34.8468 16.5774 33.7785L18.3465 31.8793L20.9828 31.5181C22.3918 31.278 23.8008 31.038 24.028 30.9783C24.3005 30.8592 24.8919 30.9764 25.3926 31.2122L26.3028 31.6247L26.4432 33.4012ZM23.5783 53.7225L24.3967 53.7207L24.6214 52.5357C24.936 50.8766 25.8464 51.3484 26.0326 53.3025C26.1255 54.1907 26.3999 54.9008 26.6272 54.9003C26.8546 54.8998 27.0361 54.7217 27.0354 54.4256C27.0349 54.1887 27.2156 53.6552 27.442 53.2401L27.804 52.4694L28.9423 53.1776L30.1259 53.8264L32.9428 52.8726L35.8054 51.9778L36.7618 52.6864L37.7182 53.395L35.4452 53.5777L33.1721 53.7605L32.5833 54.7686L32.0399 55.7767L31.1744 55.0679L30.309 54.3591L28.3565 55.548L26.4496 56.796L25.4477 56.0874L24.4914 55.4381L22.4476 56.4495C21.3577 57.0441 20.3135 57.7572 20.1324 58.113L19.8156 58.7652L19.0851 57.4046L18.3547 56.1032L16.7633 56.1067L15.2174 56.1101L15.2194 56.9985L15.2212 57.8277L13.902 57.5345C13.1741 57.3584 12.1741 57.4791 11.6747 57.8356L10.7668 58.4891L8.58314 57.9609L6.44496 57.4326L5.67345 58.0858L4.9018 58.6798L3.89888 57.4974L2.89596 56.3151L3.5764 55.6029L4.21138 54.8908L5.39447 55.3027L6.53196 55.6556L8.25672 54.2895C9.20984 53.5174 10.1179 52.9232 10.2999 52.982C10.482 53.1 11.209 52.8615 11.8902 52.5046C12.5715 52.1478 14.6169 51.8471 16.4357 51.9023L19.7094 51.895L20.0264 51.3021L20.2977 50.65L21.5288 52.1871C22.2126 53.0148 23.1236 53.7235 23.5783 53.7225ZM40.7004 65.4708C40.701 65.7669 40.3839 66.3006 40.0211 66.716C39.6583 67.1314 39.3418 67.9613 39.3433 68.6128L39.3459 69.7973L37.7586 71.6369L36.1713 73.4765L36.1742 74.7795C36.1758 75.4902 35.859 76.2016 35.4958 76.4393L34.8145 76.737L34.8177 78.2176L34.8209 79.6391L33.8667 79.9373L32.9127 80.2948L33.006 81.3607C33.0528 81.9529 33.1006 83.0188 33.0568 83.7889L33.0143 85.092L31.8334 85.6869L30.698 86.2817L30.9734 87.4656L31.2489 88.6495L30.1138 89.3628L28.933 90.0169L28.938 92.2675C28.9408 93.5113 28.7615 94.6962 28.4891 94.8745C28.2622 95.0527 28.0369 96.0008 28.0392 97.0077L28.043 98.7253L27.0425 98.6683C25.3146 98.6129 20.1712 96.1367 19.9419 95.2488L19.7583 94.4793L21.1688 94.8907L22.5792 95.3022L23.9414 94.47C24.7134 94.0537 25.3031 93.4009 25.3022 92.9863C25.3014 92.6309 24.527 91.9812 23.6168 91.6278C22.6611 91.2153 21.7049 90.6252 21.4315 90.3297L20.9755 89.7384L23.1589 90.1481L25.2968 90.558L25.2952 89.8473C25.2943 89.4327 24.9746 88.7819 24.61 88.4273L23.8811 87.7775L25.8299 84.9302L27.7789 82.1422L28.6428 82.1403L29.4612 82.1385L29.184 80.1846L28.9068 78.1715L30.042 77.5175C30.6778 77.1607 31.1764 76.4489 31.1752 75.9159L31.1732 75.0275L32.4455 74.6693C34.2175 74.0731 34.399 73.895 33.9418 72.7707L33.5305 71.824L34.6176 69.9855C35.2066 69.0366 36.2944 67.4942 36.9745 66.6043L38.1984 64.9433L39.4715 64.9404C40.1536 64.9389 40.6997 65.1746 40.7004 65.4708ZM49.531 69.8932L48.669 70.7243L49.718 72.2027L50.7669 73.6218L50.3156 75.1627L49.819 76.7629L48.3639 76.7069L46.8634 76.651L47.6811 76.3531L48.4534 76.0552L48.2656 73.3904C48.1714 71.91 48.1679 70.3108 48.3034 69.8959C48.4387 69.4218 48.9836 69.0653 49.4837 69.0641L50.4385 69.062L49.531 69.8932ZM49.8281 80.8496C49.8294 81.4419 50.1491 82.0926 50.5134 82.3288C50.8775 82.5056 51.197 83.038 51.1981 83.5118C51.199 83.9264 51.473 84.4588 51.8371 84.6357L52.4743 84.9304L52.2508 86.6485C52.1163 87.5372 51.7109 89.2557 51.3045 90.5003L50.6272 92.634L49.2183 92.9333C47.4004 93.2927 46.8537 92.8201 47.8974 91.8701L48.7596 91.0983L48.6124 86.242L48.4651 81.3264L47.9633 80.5576L47.4613 79.7295L48.6434 79.7269L49.8256 79.7243L49.8281 80.8496ZM50.7719 96.365C51.7737 97.0735 52.5941 97.9601 52.595 98.3747C52.5968 99.1447 50.6887 99.8596 48.6881 99.864C47.5059 99.8667 47.3227 99.2748 48.0934 98.2662L48.5922 97.6136L48.0892 96.371L47.5409 95.1284L48.2229 95.1269C48.6321 95.126 49.77 95.6565 50.7719 96.365Z" fill="black"/>
</svg>
