<svg width="47" height="52" viewBox="0 0 47 52" fill="none" xmlns="http://www.w3.org/2000/svg">
<path d="M20 0C14.4648 0 10 4.46484 10 10V16C10 19.2383 11.5859 22.1445 14 23.9688V28.5C14 28.6055 13.9805 28.6953 13.7188 28.9375C13.457 29.1797 12.9922 29.5039 12.375 29.8125C11.1445 30.4297 9.36719 31.0625 7.5625 31.9375C5.75781 32.8125 3.88672 33.9258 2.4375 35.5312C0.988281 37.1367 0 39.2891 0 42V43H40V42C40 39.2656 39.0117 37.1055 37.5625 35.5C36.1133 33.8945 34.2422 32.8008 32.4375 31.9375C30.6328 31.0742 28.8516 30.4219 27.625 29.8125C27.0117 29.5078 26.5391 29.2109 26.2812 28.9688C26.0234 28.7266 26 28.625 26 28.5V23.9688C28.4141 22.1445 30 19.2383 30 16V10C30 4.46484 25.5352 0 20 0ZM20 2C24.4648 2 28 5.53516 28 10V16C28 18.7578 26.5586 21.2422 24.4375 22.6562L24 22.9688V28.5C24 29.2734 24.3984 29.957 24.9062 30.4375C25.4141 30.918 26.0508 31.2773 26.75 31.625C28.1484 32.3203 29.8672 32.9375 31.5625 33.75C33.2578 34.5625 34.8867 35.543 36.0625 36.8438C37.0391 37.9219 37.6055 39.3047 37.8125 41H2.1875C2.39453 39.3242 2.96484 37.957 3.9375 36.875C5.11328 35.5703 6.74219 34.5742 8.4375 33.75C10.1328 32.9258 11.8555 32.2891 13.25 31.5938C13.9453 31.2461 14.5898 30.8789 15.0938 30.4062C15.5977 29.9336 16 29.2695 16 28.5V22.9688L15.5625 22.6562C13.4414 21.2422 12 18.7578 12 16V10C12 5.53516 15.5352 2 20 2Z" fill="black"/>
<path d="M33.3144 49.7355C33.5394 51.0477 34.6687 52 35.9995 52C37.3307 52 38.4603 51.0477 38.6853 49.7355L38.6991 49.6555H33.3007L33.3144 49.7355Z" fill="#FF0000"/>
<path d="M45.1859 45.9835C44.9657 45.7632 44.7412 45.5769 44.5241 45.3965C43.611 44.6382 42.8222 43.9834 42.8222 41.2643V39.1075C42.8222 35.9361 40.5939 33.1533 37.5109 32.4555C37.6344 32.2132 37.6971 31.9585 37.6971 31.6969C37.6971 30.7613 36.9357 30 35.9998 30C35.0641 30 34.3029 30.7613 34.3029 31.6969C34.3029 31.9586 34.3654 32.2133 34.4891 32.4555C31.4059 33.1533 29.1777 35.9361 29.1777 39.1075V41.2643C29.1777 43.9834 28.389 44.6383 27.4758 45.3965C27.2587 45.5768 27.0343 45.7632 26.814 45.9835L26.794 46.0035V48.1433H45.2059V46.0035L45.1859 45.9835Z" fill="#FF0000"/>
</svg>
