<svg width="129" height="126" viewBox="0 0 129 126" fill="none" xmlns="http://www.w3.org/2000/svg">
<path d="M79.3454 1.49609C78.0646 1.77347 76.8828 2.18791 76.6863 2.46289C76.4897 2.73787 76.5897 3.35538 76.8863 3.76654L77.4795 4.58886L76.5953 5.89491L75.7604 7.20085L76.8469 8.22798L77.9334 9.25512L77.0002 10.6986L76.0669 12.0733L76.2692 14.4065L76.4713 16.6711L75.535 16.6732L74.5493 16.6753L74.5515 17.6362C74.5525 18.1167 74.9974 18.7334 75.54 18.9381C76.0826 19.1428 76.6755 19.8279 76.8247 20.4453L77.1722 21.6113L76.3853 22.2994C75.2536 23.1256 75.3544 24.1549 76.6373 24.8384L77.7227 25.3851L77.8283 28.5422L77.9833 31.7677L76.357 31.7713L74.6814 31.775L74.382 30.1284C74.2321 29.1679 74.2293 27.9324 74.3758 27.3144L74.7182 26.1468L74.0763 25.5991L73.3851 25.0515L74.0235 24.0206L74.6126 22.9897L74.1169 21.6868C73.2247 19.3551 72.9253 17.7085 73.0189 15.4433C73.1147 14.2076 72.8649 12.6982 72.568 12.1497L71.9745 11.1901L72.763 11.1884L73.5515 11.1866L73.5473 9.26484C73.5404 6.17622 74.0787 4.45913 75.0636 4.11376C76.2453 3.63069 76.2915 2.25785 75.1088 2.26047C73.5318 2.26397 58.6084 6.41523 56.1468 7.51887L53.8329 8.62218L52.1528 6.56682L50.4728 4.58009L48.254 4.10455L45.986 3.62912L44.1148 4.31963C43.0808 4.73374 40.7196 6.72943 38.8024 8.86141C34.0828 14.0882 32.6073 15.3956 31.3752 15.3983C30.3403 15.4006 28.8165 17.1885 29.2614 17.8053C29.4096 17.9422 31.1334 17.4579 33.1524 16.7671C35.1713 16.0076 38.0776 15.3835 39.6053 15.3801L42.3651 15.374L43.5508 16.6754C44.2423 17.3602 45.2817 19.417 45.9264 21.2001L47.067 24.4235L46.1825 25.5923C45.6419 26.2799 44.3626 27.175 43.23 27.5893L41.2113 28.4174L39.5337 27.5289C35.8824 25.5465 34.6484 24.657 34.6473 24.1765C34.6467 23.902 33.8083 23.6293 32.7241 23.6317C31.6892 23.634 29.816 23.4322 28.5342 23.2292L26.2662 22.7537L26.2645 21.9987C26.2636 21.5869 26.7054 20.8309 27.2465 20.3493C27.7875 19.8676 28.2295 19.1803 28.2288 18.8371C28.2254 17.3271 26.9955 18.2907 24.6866 21.5904C23.36 23.4465 22.0822 25.028 21.8358 25.0285C21.6387 25.029 20.7543 26.2664 19.9197 27.7096L18.3488 30.4585L17.814 33.7543L17.2299 37.0501L15.0182 39.7318C12.2654 42.8952 6.27501 52.8607 5.83589 54.8522C5.68987 55.6761 5.1505 56.9128 4.65936 57.6689C3.38243 59.6621 1.33267 68.7267 0.705697 74.9053L0.17531 80.1915L0.776736 84.7202L1.32888 89.2489L3.11338 93.9123C5.88915 101.113 10.2386 106.8 16.359 111.042C18.2839 112.342 21.4418 114.051 23.4149 114.87C27.9531 116.782 38.9973 119.022 43.4819 119.012C47.0301 118.936 59.5925 116.849 64.4192 115.534C65.8968 115.119 68.3587 114.153 69.8357 113.463C73.331 111.808 77.9596 110.013 78.6988 110.012C79.3888 110.01 80.5306 113.782 81.2308 118.38C81.8816 122.977 82.527 125.103 83.217 125.101L83.7591 125.1L83.4114 123.866C83.2621 123.248 82.8125 120.504 82.4125 117.896C82.0616 115.22 81.2644 111.31 80.6681 109.115C79.3266 104.176 75.3162 95.8113 72.9441 92.8652L71.1652 90.7414L68.1099 90.8168C66.4837 90.8891 64.8574 90.8927 64.5124 90.8934C64.1673 90.8256 63.7213 89.7284 63.4227 88.4249L62.974 86.0923L63.3628 83.6205C63.6062 82.2473 64.1941 80.6673 64.6858 80.1858C65.4725 79.3604 68.6739 78.461 71.4826 78.3175C73.1581 78.2452 74.8858 79.5454 77.308 82.8346C79.6311 85.9181 80.6184 86.6709 80.6153 85.2982C80.6137 84.5432 76.1155 78.4445 75.5734 78.4457C75.3269 78.4463 74.6848 77.7613 74.141 77.0076L73.1029 75.5685L69.2105 75.9889L65.3183 76.478L65.3131 74.1444L65.3079 71.8108L66.4384 70.4355C67.0281 69.6792 68.3067 68.441 69.2417 67.8212L70.9638 66.5819L74.7095 66.7108C80.2787 66.8358 83.3382 68.6135 87.5887 74.1637C89.4175 76.5619 90.6991 76.6963 89.6592 74.4336C88.7184 72.4452 82.3962 66.0761 80.5712 65.3938C79.6339 64.984 77.0209 64.5094 74.7533 64.2398L70.7113 63.837L71.4959 62.0507C72.6727 59.3713 75.2281 56.0711 76.4589 55.5193L77.4928 55.0365L82.1283 56.399C86.8624 57.7612 90.8088 59.4684 93.9677 61.6577C96.1393 63.0943 97.0742 62.4058 95.4437 60.5563C94.1098 59.0492 86.9058 55.0843 85.5752 55.0872C85.0331 55.0884 84.3422 54.6781 84.0454 54.1984L83.5012 53.2386L85.4691 51.7243L87.4371 50.2099L90.1491 50.8903C94.1925 51.9109 103.023 56.1467 105.936 58.4739L108.454 60.4588L109.495 63.0647C110.684 65.9447 114.019 80.8314 114.273 84.5372C114.424 85.841 114.772 87.007 115.117 87.1435L115.709 87.4168L115.404 83.2993L115.099 79.1818L117.604 75.1267C123.104 66.3977 126.828 56.849 128.091 48.198L128.818 43.0487L128.324 42.3634L127.78 41.6096L127.339 42.5715L126.947 43.5333L123.793 43.5402L120.688 43.5471L119.852 44.5785L118.968 45.61L118.226 44.7194L117.485 43.8974L116.797 44.6539L116.06 45.4792L114.974 44.7266L113.937 43.9053L112.854 44.594C112.313 45.0071 109.899 45.4929 107.534 45.704L103.248 46.1253L102.014 45.3731L100.731 44.5523L97.4305 45.3146C95.5587 45.7306 93.3906 45.8726 92.5031 45.6687L90.9253 45.329L93.5823 43.4013L96.2885 41.4735L97.3242 41.8144L98.36 42.2239L98.8015 41.262L99.2429 40.3001L99.985 41.6026L100.678 42.9051L102.744 41.3905L104.811 39.876L105.207 40.6987L105.554 41.5902L106.291 40.6963L107.029 39.8711L107.227 40.6256L107.377 41.3803L109.542 39.8655L111.707 38.4193L112.054 39.2422L112.401 40.0651L113.926 38.9635C114.762 38.3439 115.598 37.5184 115.746 37.1749L116.089 36.4192L116.781 37.2413L117.472 37.9947L118.21 37.1695L118.898 36.3443L120.427 36.8214C121.216 37.0941 123.384 37.0207 125.158 36.8109L128.409 36.2546L128.059 33.7844C127.608 30.4223 125.92 25.141 124.932 23.9077C124.438 23.3597 122.958 22.6767 121.627 22.4051L119.162 21.9987L118.032 23.7171L116.952 25.5041L115.867 25.5065C115.276 25.5078 114.437 25.0292 113.943 24.4126L113.103 23.3162L111.184 24.6246C110.15 25.3132 108.377 25.8663 107.293 25.8687L105.223 25.8732L103.938 24.0916C103.246 23.0635 101.962 22.1055 101.173 21.8327L99.6938 21.4241L99.6879 18.7473L99.6818 16.0019L97.8579 15.8L95.9848 15.5983L96.1796 14.5683C96.2769 14.019 96.4227 13.0578 96.5691 12.4397L96.764 11.4097L95.5301 10.5888C94.8392 10.1786 94.246 9.35623 94.2448 8.80715C94.2436 8.25806 94.9796 6.81506 95.8641 5.64628L97.4366 3.58371L96.6958 2.89899C94.5726 1.05052 85.4537 0.315733 79.3454 1.49609ZM49.5898 6.43522C51.6621 7.52881 57.2019 16.6452 56.6134 17.9506C56.2211 18.8437 51.9365 20.1573 49.571 20.1625L47.7968 20.1665L46.0167 17.4936C45.0279 16.0544 43.7432 14.5473 43.1507 14.0681C42.5584 13.6576 41.0299 13.3178 39.7486 13.3207L37.4324 13.3258L38.6112 11.5386C40.4776 8.72042 42.4943 6.9314 44.415 6.37806C47.0747 5.6858 48.2082 5.68329 49.5898 6.43522ZM53.7169 22.9674L52.8806 23.6556L53.1822 26.3318L53.5333 29.0765L52.8949 30.1074L52.3058 31.1383L52.9471 31.4114C53.3418 31.6164 54.4266 31.8886 55.3631 31.9551L57.0884 32.1572L57.2398 33.7355C57.3403 34.6276 57.7366 35.519 58.1313 35.724C59.2661 36.3392 58.9231 37.2322 57.0529 38.3346L55.281 39.368L54.2442 38.5467C53.6519 38.1362 52.5648 36.8345 51.8229 35.6007C51.0809 34.3669 49.7965 32.997 48.9577 32.5184L47.4772 31.6294L47.178 30.0515L46.8788 28.4735L47.6649 27.3736C48.1071 26.7549 48.4493 25.5186 48.4475 24.695C48.4457 23.8714 48.5914 22.9102 48.7881 22.7038C48.9353 22.4289 50.3147 22.22 51.8425 22.2166L54.6024 22.2791L53.7169 22.9674ZM34.0115 26.3743L35.4917 27.126L36.2855 29.5265C36.7812 30.8295 37.13 32.5446 37.1317 33.2996C37.1333 34.0546 36.545 35.4287 35.857 36.3225L34.5302 38.0413L33.2981 38.044L32.1154 38.0467L30.4352 35.9913C29.5457 34.8951 27.9663 33.8004 27.0293 33.5279L25.2542 33.1201L22.6446 34.1554C21.1673 34.7078 19.7387 34.9855 19.4424 34.7116L18.8498 34.1638L19.3877 32.2408C19.6809 31.142 20.7118 29.2865 21.6452 27.9803L23.3651 25.7115L27.9483 25.7014C30.4617 25.6958 33.173 26.033 34.0115 26.3743ZM81.2438 35.3296C83.4137 36.0111 85.9808 37.9959 87.7603 40.3942C88.2545 41.0109 89.3982 45.6069 89.4012 46.9797C89.402 47.3228 88.7618 47.5302 87.9732 47.5319C87.234 47.5336 86.0033 48.154 85.3151 48.9105C84.6268 49.6671 83.8889 50.2864 83.6918 50.2869C83.4947 50.2873 82.9045 50.8377 82.413 51.4565L81.4793 52.6254L78.2277 53.1131L75.0255 53.6006L73.6977 54.9077C73.0095 55.6642 71.9289 57.3138 71.3404 58.6192C70.7026 59.9247 70.0159 61.3676 69.7211 61.7801C69.4265 62.2612 68.9855 63.429 68.7412 64.3904C68.497 65.3519 67.8586 66.3829 67.4155 66.5897C66.9233 66.8654 65.9891 67.8284 65.2518 68.7223L63.9247 70.3038L63.6838 72.7753C63.4895 74.0798 63.0496 75.7281 62.6567 76.3466L61.9199 77.4465L56.2514 76.9786L50.6324 76.5792L48.4609 75.2113C45.648 73.5016 43.4731 70.5551 42.7269 67.3995L42.0806 64.8614L42.5676 62.2521C43.1524 59.2994 45.1627 54.6277 47.4217 51.0536C48.3059 49.7476 48.993 48.442 48.9922 48.0988C48.9916 47.8242 49.2376 47.6178 49.5332 47.6171C49.8289 47.6165 50.9112 46.7218 51.8945 45.6901C55.3359 41.9075 60.6994 38.1892 65.2296 36.4633C68.7748 35.0827 74.4398 33.9719 76.5597 34.3104C77.7921 34.445 79.9123 34.9207 81.2438 35.3296ZM28.6667 38.5348L28.8191 40.5935L27.3446 42.3813L25.8699 44.1005L22.8648 44.5876L19.8104 45.0748L17.8858 43.9123C16.8494 43.2282 15.9603 42.3379 16.0087 41.926C16.0078 41.5142 16.8919 40.2081 17.9734 38.9703L19.8905 36.7697L22.748 36.3515C24.2751 36.0736 25.8023 35.7957 26.0485 35.7265C26.3439 35.5885 26.9849 35.7244 27.5276 35.9977L28.5143 36.476L28.6667 38.5348ZM25.5648 62.0839L26.4519 62.0819L26.6953 60.7087C27.036 58.7861 28.0229 59.333 28.225 61.5975C28.3258 62.6269 28.6234 63.4498 28.8698 63.4493C29.1162 63.4487 29.3129 63.2424 29.3121 62.8992C29.3115 62.6247 29.5072 62.0065 29.7526 61.5255L30.1449 60.6324L31.3787 61.4533L32.6618 62.2054L35.7148 61.1005L38.8173 60.0641L39.854 60.8854L40.8908 61.7067L38.4271 61.9181L35.9635 62.1295L35.3254 63.2977L34.7366 64.4658L33.7984 63.6443L32.8603 62.8227L30.7442 64.2001L28.6775 65.6461L27.5915 64.8248L26.5549 64.0721L24.3398 65.2439C23.1585 65.9328 22.0269 66.759 21.8307 67.1712L21.4874 67.927L20.6953 66.3501L19.9035 64.8419L18.1786 64.8457L16.503 64.8494L16.5053 65.879L16.5074 66.8399L15.0775 66.4999C14.2885 66.2957 13.2046 66.4354 12.6634 66.8484L11.6795 67.6056L9.31256 66.9931L6.99493 66.3805L6.15881 67.1374L5.32254 67.8256L4.23529 66.4552L3.14804 65.0849L3.88545 64.2597L4.57357 63.4345L5.85597 63.9121L7.08893 64.3212L8.95815 62.7384C9.9911 61.8439 10.9752 61.1553 11.1725 61.2235C11.3699 61.3604 12.1578 61.0841 12.8962 60.6706C13.6345 60.2571 15.8514 59.9091 17.8228 59.9733L21.3711 59.9655L21.7146 59.2783L22.0086 58.5227L23.3432 60.3043C24.0845 61.2635 25.072 62.085 25.5648 62.0839ZM44.1252 75.7014C44.1259 76.0445 43.7823 76.663 43.3891 77.1444C42.9959 77.6257 42.6531 78.5874 42.6548 79.3423L42.6578 80.7151L40.9377 82.8466L39.2175 84.9781L39.2208 86.4881C39.2227 87.3118 38.8795 88.1362 38.4859 88.4116L37.7474 88.7564L37.7512 90.4723L37.7549 92.1196L36.7207 92.465L35.6867 92.8791L35.788 94.1144C35.8388 94.8006 35.8908 96.036 35.8435 96.9283L35.7976 98.4384L34.5178 99.1276L33.2872 99.8167L33.586 101.189L33.8847 102.561L32.6545 103.387L31.3748 104.145L31.3806 106.753C31.3838 108.195 31.1897 109.568 30.8945 109.774C30.6485 109.981 30.4045 111.079 30.4071 112.246L30.4115 114.237L29.3272 114.17C27.4543 114.106 21.8791 111.236 21.6304 110.207L21.4313 109.315L22.9601 109.792L24.4889 110.269L25.9652 109.305C26.8019 108.822 27.4409 108.066 27.4399 107.586C27.4389 107.174 26.5995 106.421 25.6129 106.011C24.5769 105.533 23.5405 104.849 23.244 104.506L22.7497 103.821L25.1163 104.296L27.4336 104.772L27.4318 103.948C27.4307 103.467 27.0841 102.713 26.6889 102.302L25.8987 101.549L28.0106 98.2498L30.1225 95.0192L31.0589 95.0171L31.946 95.0152L31.6453 92.7508L31.3444 90.4179L32.5748 89.6601C33.2638 89.2468 33.8041 88.422 33.8027 87.8042L33.8004 86.7747L35.1794 86.3598C37.0999 85.6692 37.2966 85.4629 36.8008 84.1599L36.3549 83.0627L37.5329 80.9323C38.1712 79.8327 39.35 78.0456 40.0869 77.0144L41.4133 75.0896L42.7932 75.0866C43.5324 75.085 44.1244 75.3582 44.1252 75.7014ZM53.6973 80.8279L52.7631 81.7908L53.9004 83.5042L55.0375 85.149L54.5486 86.9346L54.0106 88.789L52.4335 88.7238L50.807 88.6588L51.6933 88.3137L52.5303 87.9686L52.3264 84.8804C52.224 83.1648 52.2199 81.3116 52.3667 80.8308C52.5133 80.2814 53.1038 79.8683 53.6459 79.8671L54.6808 79.8648L53.6973 80.8279ZM54.0211 93.5249C54.0227 94.2112 54.3693 94.9655 54.7642 95.2391C55.1589 95.4442 55.5052 96.0611 55.5064 96.6102C55.5075 97.0907 55.8046 97.7077 56.1993 97.9128L56.89 98.2544L56.648 100.245C56.5024 101.275 56.0633 103.267 55.623 104.709L54.8892 107.182L53.3622 107.528C51.3919 107.944 50.7993 107.397 51.9303 106.296L52.8647 105.402L52.7044 99.7737L52.5439 94.0772L51.9998 93.1862L51.4556 92.2265L52.7369 92.2236L54.0182 92.2208L54.0211 93.5249ZM55.0466 111.505C56.1327 112.327 57.022 113.354 57.0231 113.835C57.0251 114.727 54.957 115.555 52.7886 115.56C51.5073 115.563 51.3087 114.877 52.1439 113.708L52.6843 112.952L52.139 111.512L51.5444 110.072L52.2836 110.07C52.7272 110.069 53.9606 110.684 55.0466 111.505Z" fill="white"/>
</svg>
